<?xml version="1.0" encoding="utf-8"?>
<!-- Generator: Adobe Illustrator 15.1.0, SVG Export Plug-In . SVG Version: 6.00 Build 0)  -->
<!DOCTYPE svg PUBLIC "-//W3C//DTD SVG 1.1//EN" "http://www.w3.org/Graphics/SVG/1.1/DTD/svg11.dtd">
<svg version="1.1" id="Layer_1" xmlns="http://www.w3.org/2000/svg" xmlns:xlink="http://www.w3.org/1999/xlink" x="0px" y="0px"
	 width="220.709px" height="122.333px" viewBox="0 0 220.709 122.333" enable-background="new 0 0 220.709 122.333"
	 xml:space="preserve">
<g id="TENape_1_">
	
		<image overflow="visible" width="201" height="469" id="TENape" xlink:href="59F9FF05.jpg"  transform="matrix(1 0 0 1 -309.625 -226.5)">
	</image>
</g>
<path fill="none" stroke="#61BAE9" stroke-width="4" stroke-miterlimit="10" d="M13.365-131.712c0,0,12.171-92.781,99.642-92.781
	c87.472,0,99.643,92.875,99.643,92.875"/>
<polyline fill="none" stroke="#61BAE9" stroke-width="4" stroke-linecap="round" stroke-linejoin="round" stroke-miterlimit="10" points="
	5.125,-123.312 13.365,-131.344 19.256,-122.312 "/>
<g>
	<path fill="none" stroke="#61BAE9" stroke-width="4" stroke-miterlimit="10" d="M212.649,6.601c0,0-12.171,92.781-99.642,92.781
		c-87.472,0-99.643-92.875-99.643-92.875"/>
	
		<polyline fill="none" stroke="#61BAE9" stroke-width="4" stroke-linecap="round" stroke-linejoin="round" stroke-miterlimit="10" points="
		7.125,13.688 13.365,4.656 21.256,11.688 	"/>
	
		<circle fill="#EAF4FB" stroke="#61BAE9" stroke-width="4" stroke-linecap="round" stroke-linejoin="round" stroke-miterlimit="10" cx="109.375" cy="99" r="17.667"/>
	<path fill-rule="evenodd" clip-rule="evenodd" fill="#404857" d="M101.071,100.49c-0.264-0.274-0.263-0.725,0.002-0.999
		l1.699-1.767c0.265-0.275,0.697-0.275,0.963,0l2.76,2.86c0.265,0.274,0.697,0.274,0.961-0.001l7.564-7.876
		c0.264-0.275,0.697-0.276,0.963-0.003l1.691,1.745c0.265,0.274,0.266,0.722,0.002,0.998l-9.173,9.551
		c-0.265,0.275-0.786,0.501-1.16,0.501h-0.792c-0.375,0-0.896-0.226-1.16-0.501L101.071,100.49z"/>
</g>
</svg>
