<?xml version="1.0" encoding="utf-8"?>
<!-- Generator: Adobe Illustrator 15.1.0, SVG Export Plug-In . SVG Version: 6.00 Build 0)  -->
<!DOCTYPE svg PUBLIC "-//W3C//DTD SVG 1.1//EN" "http://www.w3.org/Graphics/SVG/1.1/DTD/svg11.dtd">
<svg version="1.1" id="Layer_1" xmlns="http://www.w3.org/2000/svg" xmlns:xlink="http://www.w3.org/1999/xlink" x="0px" y="0px"
	 width="25px" height="15px" viewBox="0 0 25 15" enable-background="new 0 0 25 15" xml:space="preserve">
<g id="TENape_1_">
	
		<image overflow="visible" width="201" height="469" id="TENape" xlink:href="CB158924.jpg"  transform="matrix(1 0 0 1 -500 -563.5)">
	</image>
</g>
<path fill="none" stroke="#61BAE9" stroke-width="4" stroke-miterlimit="10" d="M-177.01-468.712c0,0,12.171-92.781,99.642-92.781
	c87.472,0,99.643,92.875,99.643,92.875"/>
<polyline fill="none" stroke="#61BAE9" stroke-width="4" stroke-linecap="round" stroke-linejoin="round" stroke-miterlimit="10" points="
	-185.25,-460.312 -177.01,-468.344 -171.119,-459.312 "/>
<g>
	<path fill="none" stroke="#61BAE9" stroke-width="4" stroke-miterlimit="10" d="M22.274-330.399c0,0-12.171,92.781-99.642,92.781
		c-87.472,0-99.643-92.875-99.643-92.875"/>
	
		<polyline fill="none" stroke="#61BAE9" stroke-width="4" stroke-linecap="round" stroke-linejoin="round" stroke-miterlimit="10" points="
		-183.25,-323.312 -177.01,-332.344 -169.119,-325.312 	"/>
	
		<circle fill="#EAF4FB" stroke="#61BAE9" stroke-width="4" stroke-linecap="round" stroke-linejoin="round" stroke-miterlimit="10" cx="-81" cy="-238" r="17.667"/>
	<path fill-rule="evenodd" clip-rule="evenodd" fill="#404857" d="M-89.304-236.51c-0.264-0.274-0.263-0.725,0.002-0.999
		l1.699-1.767c0.265-0.275,0.697-0.275,0.963,0l2.76,2.86c0.265,0.274,0.697,0.274,0.961-0.001l7.564-7.876
		c0.264-0.275,0.697-0.276,0.963-0.003l1.691,1.745c0.265,0.274,0.266,0.722,0.002,0.998l-9.173,9.551
		c-0.265,0.275-0.786,0.501-1.16,0.501h-0.792c-0.375,0-0.896-0.226-1.16-0.501L-89.304-236.51z"/>
</g>
<g>
	<linearGradient id="SVGID_1_" gradientUnits="userSpaceOnUse" x1="-1162.228" y1="-284.0557" x2="-754.228" y2="-284.0557">
		<stop  offset="0.5" style="stop-color:#64BCEA"/>
		<stop  offset="0.5" style="stop-color:#404857"/>
	</linearGradient>
	<path fill="url(#SVGID_1_)" d="M-868.228-170.056h-180c-62.86,0-114-51.141-114-114s51.14-114,114-114h180
		c62.86,0,114,51.141,114,114S-805.368-170.056-868.228-170.056z M-1048.228-390.056c-58.449,0-106,47.552-106,106
		s47.551,106,106,106h180c58.449,0,106-47.552,106-106s-47.551-106-106-106H-1048.228z"/>
</g>
<path fill-rule="evenodd" clip-rule="evenodd" fill="none" stroke="#000000" stroke-width="8" stroke-miterlimit="10" d="M-600-845
	h180c60.751,0,110,49.249,110,110s-49.249,110-110,110h-180c-60.751,0-110-49.249-110-110S-660.751-845-600-845z"/>
<rect x="-698" y="-49" fill="#64BCEA" width="188" height="101"/>
<path fill="none" stroke="#404857" stroke-width="8" stroke-linecap="round" stroke-linejoin="round" stroke-miterlimit="10" d="
	M-826-367c0,0,13.467,8.084,26.293,21.714c8.377,8.902,16.941,24.409,19.707,34.286"/>
<path fill="none" stroke="#64BCEA" stroke-width="8" stroke-linecap="round" stroke-linejoin="round" stroke-miterlimit="10" d="
	M-1092-366c0,0-13.467,8.084-26.293,21.714c-8.377,8.901-16.941,24.409-19.707,34.286"/>
<g>
	<g>
		
			<linearGradient id="SVGID_2_" gradientUnits="userSpaceOnUse" x1="-985.4883" y1="-294.5449" x2="-903.9268" y2="-294.5449" gradientTransform="matrix(1 0 0 1 -12 -10)">
			<stop  offset="0.5" style="stop-color:#64BCEA"/>
			<stop  offset="0.5" style="stop-color:#404857"/>
		</linearGradient>
		<path fill="url(#SVGID_2_)" d="M-916.603-308.208c-0.784-0.963-2.077-1.343-3.251-0.946l-37.822,12.711l-35.839-12.695
			c-1.155-0.408-2.437-0.067-3.239,0.861s-0.962,2.257-0.403,3.353l35.808,70.202c0.5,0.981,1.493,1.632,2.587,1.632h0.067
			c1.068,0,2.058-0.577,2.59-1.517l39.786-70.2C-915.706-305.892-915.819-307.243-916.603-308.208z M-958.559-242.407l-29.864-58.55
			l29.732,10.532c0.624,0.222,1.304,0.226,1.933,0.016l31.382-10.547L-958.559-242.407z M-976.6-306.301
			c1.647,0,2.983-1.347,2.983-3.009v-14.04h32.824v14.04c0,1.662,1.336,3.009,2.983,3.009c1.648,0,2.984-1.347,2.984-3.009v-17.049
			c0-1.661-1.336-3.008-2.984-3.008h-8.951v-10.029c0-5.529-4.463-10.028-9.947-10.028s-9.946,4.499-9.946,10.028v10.029h-9.946
			c-1.648,0-2.984,1.347-2.984,3.008v17.049C-979.584-307.647-978.249-306.301-976.6-306.301z M-960.686-339.396
			c0-2.212,1.785-4.011,3.979-4.011c2.194,0,3.979,1.799,3.979,4.011v9.026h-7.957V-339.396z M-958.697-284.237v25.072
			c0,0.83,0.668,1.504,1.492,1.504s1.492-0.674,1.492-1.504v-25.072c0-0.83-0.668-1.504-1.492-1.504
			S-958.697-285.067-958.697-284.237z M-966.861-360.622c1.49,0.829,3.326,2.176,3.607,3.884c0.302,1.828-1.191,3.543-1.247,3.605
			c-0.927,1.01-0.874,2.587,0.122,3.53c0.48,0.455,1.092,0.68,1.702,0.68c0.663,0,1.324-0.265,1.813-0.79
			c0.328-0.353,3.185-3.562,2.526-7.78c-0.467-2.987-2.525-5.518-6.121-7.519c-3.25-1.809-3.749-3.142-3.697-3.375
			c0.121-0.558,2.16-2.213,7.645-2.604c1.37-0.1,2.401-1.298,2.305-2.679c-0.098-1.381-1.271-2.415-2.656-2.324
			c-6.924,0.495-11.353,2.876-12.15,6.529C-973.494-367.26-972.817-363.937-966.861-360.622z M-952.173-358.924
			c2.357,1.677,3.229,3.04,3.257,3.757c0.018,0.422-0.313,0.714-0.352,0.745l0.059-0.045l2.907,4.068
			c0.243-0.176,2.374-1.81,2.359-4.762c-0.013-2.693-1.817-5.339-5.363-7.861c-2.69-1.915-3.058-3.238-3.019-3.419
			c0.086-0.25,1.369-1.309,5.696-1.541c1.371-0.073,2.424-1.253,2.351-2.636s-1.254-2.46-2.615-2.37
			c-5.887,0.315-9.322,2.051-10.21,5.157C-957.583-366.154-957.579-362.771-952.173-358.924z M-954.718-313.32
			c0,3.317,2.677,6.017,5.968,6.017s5.968-2.699,5.968-6.017c0-3.318-2.677-6.018-5.968-6.018S-954.718-316.639-954.718-313.32z
			 M-946.76-313.32c0,1.105-0.893,2.006-1.99,2.006c-1.097,0-1.989-0.9-1.989-2.006s0.893-2.006,1.989-2.006
			C-947.653-315.326-946.76-314.426-946.76-313.32z M-970.632-313.32c0,3.317,2.677,6.017,5.968,6.017s5.968-2.699,5.968-6.017
			c0-3.318-2.677-6.018-5.968-6.018S-970.632-316.639-970.632-313.32z M-962.675-313.32c0,1.105-0.893,2.006-1.989,2.006
			c-1.098,0-1.989-0.9-1.989-2.006s0.892-2.006,1.989-2.006C-963.568-315.326-962.675-314.426-962.675-313.32z"/>
	</g>
</g>
<text transform="matrix(1 0 0 1 -1034 -196)" fill="#404857" font-family="'OpenSans-Extrabold'" font-size="40">SHIP IT!</text>
<g>
	<path fill="none" stroke="#404857" stroke-width="4" stroke-miterlimit="10" d="M-769-246c-18,13-41,18-63,11c-7-3-13-7-20-11
		c-3-2-5-4-7-6c-24-15-54-10-76,6"/>
</g>
<circle fill="#404857" cx="17.812" cy="7.5" r="6"/>
<rect x="1" y="6" fill="#404857" width="15.812" height="3"/>
</svg>
